<svg width="110" height="34" viewBox="0 0 110 34" fill="none" xmlns="http://www.w3.org/2000/svg">
<path d="M14.2 3.18001H13.8714L13.741 3.48164L1.50099 31.8016L1.19916 32.5H1.95996H8.83996H9.18058L9.30526 32.183L11.5406 26.5H21.8635L24.1768 32.1884L24.3035 32.5H24.64H31.68H32.4427L32.1385 31.8006L19.8185 3.48055L19.6877 3.18001H19.36H14.2ZM33.8484 1.26001H33.3484V1.76001V32V32.5H33.8484H39.8484H40.3484V32V1.76001V1.26001H39.8484H33.8484ZM44.239 12.06H43.739V12.56V32V32.5H44.239H50.239H50.739V32V12.56V12.06H50.239H44.239ZM44.3986 9.26656L44.4054 9.27363L44.4125 9.28043C45.1987 10.0365 46.1495 10.42 47.239 10.42C48.3289 10.42 49.2702 10.0359 50.0326 9.27356C50.8174 8.48871 51.219 7.53576 51.219 6.44001C51.219 5.34698 50.8191 4.40596 50.0327 3.64642C49.2731 2.85991 48.3321 2.46001 47.239 2.46001C46.1433 2.46001 45.1903 2.8616 44.4055 3.64646C43.6431 4.40879 43.259 5.35011 43.259 6.44001C43.259 7.5295 43.6426 8.48029 44.3986 9.26656ZM52.5097 12.06H51.7618L52.0476 12.7511L60.0876 32.1911L60.2154 32.5H60.5496H66.9097H67.2497L67.3747 32.1837L75.0547 12.7437L75.3248 12.06H74.5897H68.5497H68.1934L68.0771 12.3968L63.9333 24.3918L59.4582 12.3854L59.3369 12.06H58.9897H52.5097ZM76.8562 12.06H76.3562V12.56V32V32.5H76.8562H82.8562H83.3562V32V12.56V12.06H82.8562H76.8562ZM77.0158 9.26656L77.0226 9.27363L77.0297 9.28043C77.8159 10.0365 78.7667 10.42 79.8562 10.42C80.9461 10.42 81.8874 10.0359 82.6498 9.27356C83.4346 8.48871 83.8362 7.53576 83.8362 6.44001C83.8362 5.34697 83.4363 4.40594 82.6498 3.64639C81.8903 2.8599 80.9492 2.46001 79.8562 2.46001C78.7605 2.46001 77.8075 2.8616 77.0227 3.64646C76.2603 4.40879 75.8762 5.35011 75.8762 6.44001C75.8762 7.5295 76.2598 8.48029 77.0158 9.26656ZM92.8375 12.3296L92.8344 12.3307C91.469 12.8323 90.2656 13.559 89.229 14.5114C88.2159 15.4401 87.4167 16.5637 86.8303 17.876C86.2382 19.2012 85.9468 20.672 85.9468 22.28C85.9468 23.8881 86.2382 25.3588 86.8303 26.684C87.4161 27.995 88.2138 29.1299 89.2235 30.0835L89.2287 30.0884L89.234 30.0932C90.2701 31.0172 91.4719 31.7288 92.8344 32.2294L92.8375 32.2305C94.228 32.731 95.6989 32.98 97.2468 32.98C98.7942 32.98 100.253 32.7312 101.618 32.2298C103.007 31.7294 104.212 31.0168 105.225 30.0886L105.225 30.0882C106.263 29.1343 107.076 27.998 107.663 26.684C108.255 25.3588 108.547 23.8881 108.547 22.28C108.547 20.672 108.255 19.2012 107.663 17.876C107.077 16.563 106.264 15.4396 105.225 14.5116C104.213 13.5571 103.008 12.8309 101.618 12.3302C100.252 11.8288 98.7942 11.58 97.2468 11.58C95.6989 11.58 94.228 11.829 92.8375 12.3296ZM100.403 25.4973L100.403 25.4973L100.397 25.5031C99.6873 26.2819 98.6623 26.7 97.2468 26.7C95.8337 26.7 94.7921 26.2831 94.0537 25.5003C93.3286 24.7034 92.9468 23.6461 92.9468 22.28C92.9468 20.9139 93.3286 19.8566 94.0537 19.0598C94.7921 18.2769 95.8337 17.86 97.2468 17.86C98.6623 17.86 99.6873 18.2781 100.397 19.0569L100.397 19.0569L100.403 19.0627C101.154 19.8604 101.547 20.9165 101.547 22.28C101.547 23.6435 101.154 24.6996 100.403 25.4973ZM19.3446 20.22H13.8923L16.6027 13.2865L19.3446 20.22Z" fill="white" stroke="black"/>
</svg>
